# xmcd CD database file generated by Grip 3.3.1
# 
# Track frame offsets:
#       150
#       7622
#       61751
#       123992
#       161311
#       204881
#       281000
# 
# Disc length: 4590 seconds
# 
# Revision: 3
# Processed by: cddbd v1.5.2PL0 Copyright (c) Steve Scherf et al.
# Submitted via: Grip 3.3.1
# 
DISCID=4911ec07
DTITLE=Wilhelm Weischedel - Die Philosophische Hintertreppe
DYEAR=2004
DGENRE=Other
TTITLE0=Prolog
TTITLE1=Thales
TTITLE2=Sokrates
TTITLE3=Platon
TTITLE4=Eckhart
TTITLE5=Descartes
TTITLE6=Rousseau
EXTD=Gekürzte Fassung gelesen von Jo Brauner
EXTT0=
EXTT1=
EXTT2=
EXTT3=
EXTT4=
EXTT5=
EXTT6=
PLAYORDER=
